<svg id="Layer_1" data-name="Layer 1" xmlns="http://www.w3.org/2000/svg" viewBox="0 0 45 45"><defs><style>.cls-1{fill:#3b5998;}.cls-2{fill:#fff;}</style></defs><path class="cls-1" d="M23.1,43.89H21.93l-.78-.1c-1-.12-2-.18-2.93-.38a21,21,0,0,1-12-7.16A20.82,20.82,0,0,1,1.3,24.85c-.07-.59-.12-1.18-.19-1.77V21.91a3.31,3.31,0,0,0,.09-.62,18,18,0,0,1,1-5.31C5.13,7.72,10.91,2.8,19.59,1.35a19.27,19.27,0,0,1,7.22.22,20.77,20.77,0,0,1,11.92,7,20.81,20.81,0,0,1,4.71,18.16,20.57,20.57,0,0,1-7.22,12.1,20.8,20.8,0,0,1-11.38,4.84Zm1-25.52c0-1,0-1.93,0-2.88a1.12,1.12,0,0,1,1.27-1.25h2.67c.23,0,.41,0,.41-.33,0-1.41,0-2.81,0-4.22,0-.26-.11-.34-.35-.34-1.67,0-3.35,0-5,.09a5.1,5.1,0,0,0-4.79,5c-.09,1.13-.06,2.28-.08,3.42,0,.16,0,.32,0,.5-.79,0-1.53,0-2.26,0-.38,0-.47.12-.47.48,0,1.34,0,2.68,0,4,0,.41.11.53.52.51.73,0,1.46,0,2.24,0V24q0,6.45,0,12.91c0,.39.11.53.52.52,1.6,0,3.2,0,4.8,0,.58,0,.58,0,.58-.56V23.36h3.38c.32,0,.45-.07.48-.43.07-.95.2-1.91.3-2.86.05-.55.09-1.1.15-1.7Z"/><path class="cls-2" d="M24.13,18.37h4.31c-.06.6-.1,1.15-.15,1.7-.1.95-.23,1.91-.3,2.86,0,.36-.16.44-.48.43H24.13V36.81c0,.56,0,.56-.58.56-1.6,0-3.2,0-4.8,0-.41,0-.52-.13-.52-.52q0-6.47,0-12.91v-.59c-.78,0-1.51,0-2.24,0-.41,0-.53-.1-.52-.51,0-1.33,0-2.67,0-4,0-.36.09-.49.47-.48.73,0,1.47,0,2.26,0,0-.18,0-.34,0-.5,0-1.14,0-2.29.08-3.42a5.1,5.1,0,0,1,4.79-5c1.66-.14,3.34-.06,5-.09.24,0,.36.08.35.34,0,1.41,0,2.81,0,4.22,0,.31-.18.33-.41.33H25.4a1.12,1.12,0,0,0-1.27,1.25C24.12,16.44,24.13,17.38,24.13,18.37Z"/></svg>